<svg xmlns="http://www.w3.org/2000/svg" xmlns:xlink="http://www.w3.org/1999/xlink" width="512" zoomAndPan="magnify" viewBox="0 0 384 383.999986" height="512" preserveAspectRatio="xMidYMid meet" version="1.0"><defs><g/><clipPath id="c22a5a76bd"><rect x="0" width="290" y="0" height="308"/></clipPath></defs><g transform="matrix(1, 0, 0, 1, 47, 38)"><g clip-path="url(#c22a5a76bd)"><g fill="#f0d488" fill-opacity="1"><g transform="translate(0.705559, 229.1803)"><g><path d="M 116.046875 -105.5 C 113.265625 -110.625 109.269531 -114.539062 104.0625 -117.25 C 98.863281 -119.957031 92.75 -121.3125 85.71875 -121.3125 C 73.550781 -121.3125 63.804688 -117.316406 56.484375 -109.328125 C 49.160156 -101.347656 45.5 -90.691406 45.5 -77.359375 C 45.5 -63.148438 49.34375 -52.050781 57.03125 -44.0625 C 64.726562 -36.082031 75.316406 -32.09375 88.796875 -32.09375 C 98.023438 -32.09375 105.828125 -34.4375 112.203125 -39.125 C 118.578125 -43.8125 123.226562 -50.550781 126.15625 -59.34375 L 78.46875 -59.34375 L 78.46875 -87.03125 L 160.21875 -87.03125 L 160.21875 -52.09375 C 157.4375 -42.707031 152.710938 -33.984375 146.046875 -25.921875 C 139.378906 -17.867188 130.914062 -11.351562 120.65625 -6.375 C 110.40625 -1.394531 98.832031 1.09375 85.9375 1.09375 C 70.695312 1.09375 57.101562 -2.238281 45.15625 -8.90625 C 33.21875 -15.570312 23.914062 -24.835938 17.25 -36.703125 C 10.582031 -48.566406 7.25 -62.117188 7.25 -77.359375 C 7.25 -92.597656 10.582031 -106.1875 17.25 -118.125 C 23.914062 -130.070312 33.179688 -139.378906 45.046875 -146.046875 C 56.921875 -152.710938 70.476562 -156.046875 85.71875 -156.046875 C 104.175781 -156.046875 119.738281 -151.578125 132.40625 -142.640625 C 145.082031 -133.703125 153.472656 -121.320312 157.578125 -105.5 Z M 116.046875 -105.5 "/></g></g></g><g fill="#f0d488" fill-opacity="1"><g transform="translate(168.170001, 229.1803)"><g><path d="M 57.140625 -28.359375 L 12.53125 -76.921875 L 57.140625 -125.5 L 104.390625 -125.5 L 59.5625 -76.921875 L 104.390625 -28.359375 Z M 57.140625 -28.359375 "/></g></g></g></g></g></svg>
